<?xml version="1.0" standalone="no"?><!DOCTYPE svg PUBLIC "-//W3C//DTD SVG 1.1//EN" "http://www.w3.org/Graphics/SVG/1.1/DTD/svg11.dtd"><svg t="1676678830309" class="icon" viewBox="0 0 1024 1024" version="1.1" xmlns="http://www.w3.org/2000/svg" p-id="1502" xmlns:xlink="http://www.w3.org/1999/xlink" width="200" height="200"><path d="M0 0m349.090909 0l325.818182 0q349.090909 0 349.090909 349.090909l0 325.818182q0 349.090909-349.090909 349.090909l-325.818182 0q-349.090909 0-349.090909-349.090909l0-325.818182q0-349.090909 349.090909-349.090909Z" fill="#F96C17" p-id="1503"></path><path d="M530.618182 232.727273a18.618182 18.618182 0 0 1 18.618182 18.618182v3.816727c49.431273 10.344727 88.936727 40.785455 104.517818 79.953454l24.192 0.011637a18.618182 18.618182 0 1 1 0 37.236363l-17.012364-0.011636 0.011637 102.411636h18.618181a18.618182 18.618182 0 0 1 18.618182 18.618182v91.194182a18.618182 18.618182 0 0 1-18.618182 18.618182h-18.618181L660.933818 735.418182H698.181818V791.272727H325.818182v-55.854545h37.224727l0.011636-132.224h-18.618181a18.618182 18.618182 0 0 1-18.618182-18.618182V493.381818a18.618182 18.618182 0 0 1 18.618182-18.618182h18.618181l-0.011636-102.411636L344.436364 372.363636a18.618182 18.618182 0 1 1 0-37.236363h25.809454c15.592727-39.191273 55.098182-69.632 104.529455-79.965091L474.763636 251.345455a18.618182 18.618182 0 0 1 18.618182-18.618182h37.236364zM512 456.145455a93.090909 93.090909 0 1 0 0 186.181818 93.090909 93.090909 0 0 0 0-186.181818z m0 37.236363a55.854545 55.854545 0 1 1 0 111.709091 55.854545 55.854545 0 0 1 0-111.709091z" fill="#FFFFFF" p-id="1504"></path></svg>