<?xml version="1.0" standalone="no"?><!DOCTYPE svg PUBLIC "-//W3C//DTD SVG 1.1//EN" "http://www.w3.org/Graphics/SVG/1.1/DTD/svg11.dtd"><svg t="1676678825646" class="icon" viewBox="0 0 1024 1024" version="1.1" xmlns="http://www.w3.org/2000/svg" p-id="1362" xmlns:xlink="http://www.w3.org/1999/xlink" width="200" height="200"><path d="M0 0m349.206261 0l325.587478 0q349.206261 0 349.206261 349.206261l0 325.587478q0 349.206261-349.206261 349.206261l-325.587478 0q-349.206261 0-349.206261-349.206261l0-325.587478q0-349.206261 349.206261-349.206261Z" fill="#3271FD" p-id="1363"></path><path d="M377.366261 267.130435l44.143304 0.044522c7.401739 0 11.074783 3.673043 11.074783 11.052521v31.176348h110.425043v-31.176348c0-7.390609 3.706435-11.052522 11.019131-11.052521h44.187826c7.368348 0 11.030261 3.673043 11.030261 11.052521v31.22087h73.416348c14.491826 0 26.223304 11.442087 26.189913 25.577739v190.297043l-0.111305 0.934957A135.479652 135.479652 0 0 0 648.025043 512C572.905739 512 512 572.905739 512 648.036174c0 50.754783 27.803826 95.031652 69.008696 118.405565H292.251826A24.84313 24.84313 0 0 1 267.130435 741.954783V334.981565c0-14.169043 11.731478-25.61113 26.234435-25.61113h72.937739v-31.187478c0-7.379478 3.695304-11.052522 11.063652-11.052522z m270.669913 272.072348c60.104348 0 108.833391 48.729043 108.833391 108.833391S708.140522 756.869565 648.036174 756.869565s-108.833391-48.729043-108.833391-108.833391 48.729043-108.833391 108.833391-108.833391z m-42.251131 39.468521a10.651826 10.651826 0 0 0-3.183304 7.579826 10.774261 10.774261 0 0 0 2.159304 6.578087l0.912696 1.046261 21.815652 21.737739h-22.984348a10.874435 10.874435 0 1 0-1.268869 21.659826l1.268869 0.077914h32.645566v21.704347h-32.645566a10.874435 10.874435 0 1 0-1.268869 21.659826l1.268869 0.089044h32.645566v28.961391a10.852174 10.852174 0 0 0 21.648695 1.26887l0.066783-1.26887v-28.93913h32.645565a11.097043 11.097043 0 0 0 10.941218-10.974609 10.76313 10.76313 0 0 0-3.205566-7.590956 10.74087 10.74087 0 0 0-6.244174-3.105392l-1.435826-0.089043H658.921739v-21.704348h32.645565a10.874435 10.874435 0 0 0 1.246609-21.626435l-1.246609-0.089043H668.605217l21.793392-21.771131a10.674087 10.674087 0 0 0 3.072-7.624348 10.885565 10.885565 0 0 0-17.39687-8.570434l-1.046261 0.879304-26.991304 26.902261L621.078261 578.56a10.907826 10.907826 0 0 0-15.293218 0.111304zM467.166609 512h-128c-9.193739 0-16.740174 7.034435-17.552696 16.027826l-0.066783 1.591652v16.306087c0 9.193739 7.034435 16.740174 16.027827 17.552696l1.591652 0.077913h128c9.193739 0 16.740174-7.045565 17.552695-16.027826l0.077913-1.602783v-16.306087c0-9.728-7.902609-17.619478-17.630608-17.619478z m108.833391-108.833391H339.166609c-9.193739 0-16.740174 7.045565-17.552696 16.027826l-0.066783 1.602782v16.294957c0 9.193739 7.034435 16.751304 16.027827 17.552696l1.591652 0.077913H576c9.193739 0 16.740174-7.045565 17.552696-16.027826l0.066782-1.602783v-16.294957c0-9.73913-7.891478-17.630609-17.619478-17.630608z" fill="#FFFFFF" p-id="1364"></path></svg>