<?xml version="1.0" standalone="no"?><!DOCTYPE svg PUBLIC "-//W3C//DTD SVG 1.1//EN" "http://www.w3.org/Graphics/SVG/1.1/DTD/svg11.dtd"><svg t="1676678837238" class="icon" viewBox="0 0 1024 1024" version="1.1" xmlns="http://www.w3.org/2000/svg" p-id="1642" xmlns:xlink="http://www.w3.org/1999/xlink" width="200" height="200"><path d="M0 0m349.090909 0l325.818182 0q349.090909 0 349.090909 349.090909l0 325.818182q0 349.090909-349.090909 349.090909l-325.818182 0q-349.090909 0-349.090909-349.090909l0-325.818182q0-349.090909 349.090909-349.090909Z" fill="#3271FD" p-id="1643"></path><path d="M713.867636 232.727273c23.389091 0 40.075636 20.037818 41.088 44.113454l0.058182 2.338909V572.509091L756.363636 782.545455H308.782545c-23.389091 0-40.075636-20.037818-41.099636-44.113455L267.636364 736.093091v-457.309091c0-13.358545 6.714182-25.762909 17.384727-34.432 6.760727-6.458182 14.987636-10.845091 24.017454-11.52l2.478546-0.104727h402.350545zM563.816727 525.195636l46.114909 46.149819a10.914909 10.914909 0 0 1 0 15.394909l-37.957818 37.957818a10.914909 10.914909 0 0 1-15.394909 0l-46.103273-46.149818c-12.637091 33.070545-5.678545 71.982545 20.992 98.606545a92.625455 92.625455 0 0 0 98.618182 21.003636l38.981818 38.981819a37.748364 37.748364 0 0 0 53.352728 0 37.748364 37.748364 0 0 0 0-53.341091l-38.993455-38.981818a92.625455 92.625455 0 0 0-119.610182-119.610182z m-86.923636-63.255272h-91.578182a21.469091 21.469091 0 0 0 0 42.938181h91.578182a21.469091 21.469091 0 1 0 0-42.938181z m133.771636-129.303273H385.373091a21.469091 21.469091 0 0 0 0 42.938182h225.291636a21.469091 21.469091 0 1 0 0-42.938182z" fill="#FFFFFF" p-id="1644"></path></svg>